<svg xmlns="http://www.w3.org/2000/svg" width="72.52" height="72.52" viewBox="0 0 72.52 72.52">
  <g id="Grupo_51" data-name="Grupo 51" transform="translate(-582.634 -2035.559)">
    <circle id="Elipse_1" data-name="Elipse 1" cx="36.26" cy="36.26" r="36.26" transform="translate(582.634 2035.559)" fill="#fff"/>
    <g id="Grupo_50" data-name="Grupo 50" transform="translate(591.344 2055.677)">
      <path id="Caminho_11" data-name="Caminho 11" d="M632.723,2099.6l-22.366.993.888,4.589,7.3-.311,2.077,27.641H626l-2.072-27.856,8.794-.665Z" transform="translate(-610.357 -2099.597)"/>
      <path id="Caminho_12" data-name="Caminho 12" d="M714.558,2099.6l22.366.993-.888,4.589-7.3-.311-2.077,27.641H721.28l2.072-27.856-8.793-.665Z" transform="translate(-681.823 -2099.597)"/>
      <path id="Caminho_13" data-name="Caminho 13" d="M669.6,2146.415,667.82,2121l6.911-.821,6.384,15.886-.1-16.192,5.034.532-1.753,26.01h-5.458l-5.24-17.8.657,17.8Z" transform="translate(-649.768 -2113.502)"/>
    </g>
  </g>
</svg>
