<svg xmlns="http://www.w3.org/2000/svg" width="425.098" height="425.094" viewBox="0 0 425.098 425.094">
  <g id="Grupo_55" data-name="Grupo 55" transform="translate(-582.633 -2035.561)">
    <path id="Subtração_1" data-name="Subtração 1" d="M-14088.821,2989.229a214.1,214.1,0,0,1-42.835-4.318,211.451,211.451,0,0,1-39.9-12.385,212.564,212.564,0,0,1-36.1-19.6,214.149,214.149,0,0,1-31.457-25.954,214.086,214.086,0,0,1-25.954-31.457,212.667,212.667,0,0,1-19.6-36.1,211.534,211.534,0,0,1-12.385-39.9,214.135,214.135,0,0,1-4.318-42.835,214.143,214.143,0,0,1,4.318-42.836,211.531,211.531,0,0,1,12.385-39.9,212.612,212.612,0,0,1,19.6-36.1,214.119,214.119,0,0,1,25.954-31.457,214.132,214.132,0,0,1,31.457-25.954,212.581,212.581,0,0,1,36.1-19.6,211.464,211.464,0,0,1,39.9-12.385,214.129,214.129,0,0,1,42.835-4.318,214.132,214.132,0,0,1,42.836,4.318,211.464,211.464,0,0,1,39.9,12.385,212.556,212.556,0,0,1,36.105,19.6,214.092,214.092,0,0,1,31.457,25.954,214.119,214.119,0,0,1,25.954,31.457,212.574,212.574,0,0,1,19.6,36.1,211.531,211.531,0,0,1,12.385,39.9,214.143,214.143,0,0,1,4.318,42.836,214.135,214.135,0,0,1-4.318,42.835,211.534,211.534,0,0,1-12.385,39.9,212.569,212.569,0,0,1-19.6,36.1,214.086,214.086,0,0,1-25.954,31.457,214.134,214.134,0,0,1-31.457,25.954,212.558,212.558,0,0,1-36.105,19.6,211.452,211.452,0,0,1-39.9,12.385A214.114,214.114,0,0,1-14088.821,2989.229Zm30.4-307.168v25.745l51.544,3.894-12.146,163.286h31.552l12.171-162.022,42.776,1.82,5.2-26.9-131.1-5.822Zm-52.2,88.574,30.714,104.351h31.99l10.272-152.468-29.507-3.119.593,94.912-37.421-93.118-40.511,4.81,10.416,148.983h27.3l-3.852-104.351Zm-91.713-57.671h0l12.175,162.022h31.553l-12.146-163.286,51.544-3.894v-25.745l-131.1,5.822,5.2,26.9,42.771-1.82Z" transform="translate(14884 -528.575)"/>
  </g>
</svg>
