<svg xmlns="http://www.w3.org/2000/svg" width="154.515" height="75.053" viewBox="0 0 154.515 75.053"><g transform="translate(-969.104 -781.438)"><path d="M1064.2,824.58c-.778.095-1.252.817-1.271,1.859l3.034-.367A1.638,1.638,0,0,0,1064.2,824.58Z"/><path d="M1026.162,832.142l2.623-.317-1.733-3.326Z"/><path d="M1120.278,802.143l-92.959,12.966V781.438L969.1,786.8l7.829,37.8,26.134-2.407,3.194,2.214,2.266,24.6,6.374-.587.744,8.071,11.493-9.2,96.481-8.887Zm-18.217,11.029.36,2.972-4.817.584-.361-2.972Zm-97.912,4.9-24.025,2.213-6.2-29.916,49.391-4.549v30.487l-10.992,1.011.632,6.861-7.177-4.975Zm27.229,18.843-.992-1.835-5.021.608-.505,2.016-5.124.621,4.3-15.181,4.755-.577,7.8,13.717Zm13.724-1.393a4.207,4.207,0,0,1-3.547-1.129l.55,4.549-4.652.564-1.753-14.47,4.653-.563.166,1.373a4.177,4.177,0,0,1,3.121-2.041c2.706-.328,5.1,1.772,5.517,5.2l.005.041C1049.592,832.589,1047.745,835.2,1045.1,835.524Zm12.7-8.318c-1.967.238-2.88,1.452-2.579,3.932l.344,2.848-4.653.564-1.355-11.191,4.653-.563.273,2.255a3.419,3.419,0,0,1,3.211-2.844l.6,4.939Zm7.73,2.517a3.138,3.138,0,0,0,2.135-1.424l2.742,1.685a6.1,6.1,0,0,1-4.807,3.057c-3.67.444-6.43-1.57-6.852-5.055l-.005-.042a5.7,5.7,0,0,1,5.047-6.579c3.976-.481,6.155,2.062,6.567,5.463.031.246.065.533.075.782l-7.2.872A2.112,2.112,0,0,0,1065.529,829.723Zm13.748,1.39-.712-5.882c-.117-.962-.758-1.447-1.455-1.363a1.392,1.392,0,0,0-1.148,1.679l.712,5.882-4.653.563-1.355-11.19,4.652-.564.189,1.558a4.361,4.361,0,0,1,3.2-2.238c2.356-.286,4.02,1.092,4.326,3.614l.894,7.378Zm13.774-1.668-.166-1.373a4.178,4.178,0,0,1-3.121,2.041c-2.706.328-5.1-1.773-5.517-5.2l-.005-.041c-.429-3.546,1.416-6.16,4.06-6.48a4.206,4.206,0,0,1,3.548,1.129l-.612-5.042,4.653-.563,1.812,14.961Zm6.087-.738-1.356-11.19,4.653-.564,1.355,11.191Zm4.37-15.086,5.206-.631.373,3.074-.611,6.979-2.336.283-2.259-6.631Zm1.963,14.319-.447-3.689,4.755-.576.447,3.689Z"/><path d="M1092.474,823.816a1.884,1.884,0,1,0-3.731.453l.005.041a1.884,1.884,0,1,0,3.731-.453Z"/><path d="M1044.656,829.609a1.884,1.884,0,1,0-3.73.453l.005.041a1.884,1.884,0,1,0,3.73-.453Z"/><rect width="6.401" height="19.152" transform="matrix(0.996, -0.092, 0.092, 0.996, 984.036, 795.225)"/><path d="M1003.57,797.3a5.712,5.712,0,0,0-4.334,2.763l-.644-7-6.185.57,1.832,19.888,6.185-.571-.721-7.818a1.847,1.847,0,0,1,1.585-2.181c.927-.085,1.758.581,1.875,1.863l.721,7.818,6.184-.569-.9-9.809C1008.856,798.9,1006.7,797.012,1003.57,797.3Z"/><rect width="6.348" height="6.293" transform="translate(1010.99 805.655) rotate(-5.261)"/></g></svg>